<svg width="19" height="19" viewBox="0 0 19 19" fill="none" xmlns="http://www.w3.org/2000/svg">
<path fill-rule="evenodd" clip-rule="evenodd" d="M9.28388 0C4.13906 0 0 4.11672 0 9.23377C0 13.312 2.66911 16.7747 6.34398 18.0058C6.80818 18.0828 6.96291 17.8135 6.96291 17.5442C6.96291 17.3133 6.96291 16.7362 6.96291 15.9667C4.37116 16.5438 3.8296 14.7356 3.8296 14.7356C3.40409 13.6583 2.78516 13.389 2.78516 13.389C1.93414 12.8119 2.86253 12.8119 2.86253 12.8119C3.79092 12.8888 4.29379 13.7737 4.29379 13.7737C5.10613 15.1972 6.46003 14.774 7.00159 14.5432C7.07896 13.9276 7.31105 13.5429 7.58183 13.312C5.53164 13.0812 3.36541 12.2732 3.36541 8.7336C3.36541 7.73328 3.71355 6.88685 4.33248 6.27127C4.25511 6.04042 3.90697 5.11704 4.40984 3.80893C4.40984 3.80893 5.1835 3.57808 6.96291 4.77078C7.69788 4.57841 8.51022 4.46299 9.28388 4.46299C10.0575 4.46299 10.8699 4.57841 11.6048 4.77078C13.3843 3.57808 14.1579 3.80893 14.1579 3.80893C14.6608 5.07857 14.3513 6.00195 14.2353 6.27127C14.8155 6.92532 15.2024 7.73328 15.2024 8.7336C15.2024 12.2732 13.0361 13.0427 10.9472 13.2735C11.2954 13.5429 11.5662 14.12 11.5662 14.9664C11.5662 16.1976 11.5662 17.1979 11.5662 17.5057C11.5662 17.7365 11.7209 18.0443 12.2238 17.9674C15.8986 16.7747 18.5678 13.312 18.5678 9.23377C18.5678 4.11672 14.4287 0 9.28388 0Z" fill="white"/>
</svg>
