<svg width="20" height="20" viewBox="0 0 20 20" fill="none" xmlns="http://www.w3.org/2000/svg">
<path d="M9.70553 1.7394C12.2969 1.7394 12.6038 1.74906 13.6275 1.79548C14.243 1.80297 14.8526 1.91538 15.4299 2.12783C15.8486 2.28841 16.2288 2.5344 16.5461 2.84997C16.8634 3.16554 17.1107 3.54369 17.2721 3.96008C17.4857 4.53427 17.5988 5.14063 17.6063 5.75281C17.6525 6.77098 17.6627 7.07621 17.6627 9.65359C17.6627 12.231 17.653 12.5362 17.6063 13.5544C17.5988 14.1666 17.4857 14.7729 17.2721 15.3471C17.1107 15.7635 16.8634 16.1416 16.5461 16.4572C16.2288 16.7728 15.8486 17.0188 15.4299 17.1794C14.8526 17.3918 14.243 17.5042 13.6275 17.5117C12.6042 17.5577 12.2974 17.5678 9.70553 17.5678C7.11369 17.5678 6.80681 17.5581 5.78357 17.5117C5.16807 17.5042 4.55842 17.3918 3.98111 17.1794C3.56246 17.0188 3.18226 16.7728 2.86498 16.4572C2.5477 16.1416 2.30037 15.7635 2.13891 15.3471C1.92532 14.7729 1.8123 14.1666 1.80477 13.5544C1.75855 12.5362 1.74838 12.231 1.74838 9.65359C1.74838 7.07621 1.75809 6.77098 1.80477 5.75281C1.8123 5.14063 1.92532 4.53427 2.13891 3.96008C2.30037 3.54369 2.5477 3.16554 2.86498 2.84997C3.18226 2.5344 3.56246 2.28841 3.98111 2.12783C4.55842 1.91538 5.16807 1.80297 5.78357 1.79548C6.80727 1.74952 7.11415 1.7394 9.70553 1.7394ZM9.70553 0C7.07117 0 6.73933 0.0110321 5.70408 0.0579188C4.89854 0.0738547 4.10155 0.225553 3.34702 0.50656C2.69975 0.749114 2.11349 1.12922 1.62914 1.62035C1.1349 2.10226 0.752406 2.68568 0.508385 3.32987C0.225852 4.08033 0.0733313 4.87302 0.0573089 5.6742C0.0110921 6.70295 0 7.033 0 9.65313C0 12.2733 0.011092 12.6033 0.0582331 13.633C0.0742555 14.4342 0.226777 15.2269 0.509309 15.9773C0.75306 16.6214 1.13523 17.2048 1.62914 17.6868C2.11376 18.1781 2.70035 18.5582 3.34794 18.8006C4.10248 19.0816 4.89946 19.2333 5.705 19.2493C6.74026 19.2952 7.07071 19.3072 9.70645 19.3072C12.3422 19.3072 12.6726 19.2962 13.7079 19.2493C14.5134 19.2333 15.3104 19.0816 16.065 18.8006C16.7095 18.5521 17.2948 18.1726 17.7834 17.6863C18.272 17.2 18.6533 16.6176 18.9027 15.9764C19.1852 15.2259 19.3377 14.4333 19.3537 13.6321C19.4 12.6033 19.4111 12.2733 19.4111 9.65313C19.4111 7.033 19.4 6.70295 19.3528 5.67329C19.3368 4.8721 19.1843 4.07941 18.9017 3.32895C18.658 2.68485 18.2758 2.10143 17.7819 1.61943C17.2973 1.12819 16.7107 0.748076 16.0631 0.50564C15.3086 0.224633 14.5116 0.0729354 13.7061 0.0569995C12.6717 0.0110322 12.3399 0 9.70553 0Z" fill="white"/>
<path d="M9.70363 4.69531C8.71788 4.69531 7.75427 4.98604 6.93465 5.53074C6.11504 6.07543 5.47622 6.84963 5.09899 7.75542C4.72176 8.66122 4.62306 9.65793 4.81537 10.6195C5.00768 11.5811 5.48237 12.4644 6.17939 13.1576C6.87642 13.8509 7.76449 14.323 8.73129 14.5143C9.6981 14.7056 10.7002 14.6074 11.6109 14.2322C12.5216 13.857 13.3 13.2216 13.8477 12.4065C14.3953 11.5913 14.6876 10.6329 14.6876 9.65243C14.6876 8.33772 14.1625 7.07686 13.2279 6.14722C12.2932 5.21758 11.0255 4.69531 9.70363 4.69531ZM9.70363 12.8701C9.06377 12.8701 8.43828 12.6814 7.90626 12.3279C7.37424 11.9743 6.95958 11.4718 6.71471 10.8838C6.46985 10.2958 6.40578 9.64886 6.53061 9.02468C6.65544 8.40051 6.96356 7.82717 7.41601 7.37716C7.86846 6.92716 8.44491 6.6207 9.07247 6.49654C9.70004 6.37239 10.3505 6.43611 10.9417 6.67965C11.5328 6.92319 12.0381 7.33561 12.3936 7.86476C12.7491 8.39391 12.9388 9.01602 12.9388 9.65243C12.9388 10.5058 12.598 11.3243 11.9912 11.9277C11.3845 12.5311 10.5616 12.8701 9.70363 12.8701Z" fill="white"/>
<path d="M14.885 5.65855C15.5282 5.65855 16.0497 5.13993 16.0497 4.50017C16.0497 3.86042 15.5282 3.3418 14.885 3.3418C14.2418 3.3418 13.7203 3.86042 13.7203 4.50017C13.7203 5.13993 14.2418 5.65855 14.885 5.65855Z" fill="white"/>
</svg>
