<svg width="16" height="13" viewBox="0 0 16 13" fill="none" xmlns="http://www.w3.org/2000/svg">
<path d="M16.0091 1.49275C15.4088 1.75813 14.7751 1.92399 14.108 2.02351C14.7751 1.62544 15.3087 0.995169 15.5422 0.232206C14.9085 0.597101 14.2081 0.862479 13.441 1.02834C12.8406 0.398067 11.9735 0 11.0396 0C9.23859 0 7.77109 1.45958 7.77109 3.25088C7.77109 3.51626 7.80444 3.74847 7.87115 3.98067C5.16961 3.84799 2.73489 2.55427 1.10063 0.563929C0.833808 1.06151 0.667046 1.59227 0.667046 2.18937C0.667046 3.31723 1.23404 4.3124 2.13455 4.9095C1.60091 4.87633 1.10063 4.74364 0.633694 4.51143V4.5446C0.633694 6.13687 1.76767 7.46376 3.26853 7.76232C3.00171 7.82866 2.70154 7.86183 2.40137 7.86183C2.20125 7.86183 1.96779 7.82866 1.76767 7.79549C2.20125 9.08921 3.40194 10.0512 4.83609 10.0512C3.70211 10.9137 2.30131 11.4444 0.767103 11.4444C0.500285 11.4444 0.233466 11.4444 0 11.4113C1.4675 12.3401 3.16847 12.8708 5.0362 12.8708C11.073 12.8708 14.3748 7.895 14.3748 3.58261C14.3748 3.44992 14.3748 3.28406 14.3748 3.15137C15.0085 2.72013 15.5755 2.1562 16.0091 1.49275Z" fill="white"/>
</svg>
