<svg width="126" height="34" viewBox="0 0 126 34" fill="none" xmlns="http://www.w3.org/2000/svg">
<path d="M42.632 7.336C44.824 7.336 46.504 7.88 47.672 8.968C48.84 10.04 49.424 11.48 49.424 13.288C49.424 14.008 49.312 14.736 49.088 15.472C48.88 16.192 48.536 16.848 48.056 17.44C47.592 18.032 46.96 18.512 46.16 18.88C45.376 19.232 44.408 19.408 43.256 19.408H40.76V25H37.28V7.336H42.632ZM43.232 16.024C43.76 16.024 44.2 15.936 44.552 15.76C44.904 15.568 45.176 15.336 45.368 15.064C45.576 14.776 45.72 14.48 45.8 14.176C45.896 13.872 45.944 13.608 45.944 13.384C45.944 13.208 45.912 12.976 45.848 12.688C45.8 12.384 45.688 12.08 45.512 11.776C45.336 11.472 45.064 11.216 44.696 11.008C44.344 10.8 43.864 10.696 43.256 10.696H40.76V16.024H43.232ZM51.1698 19.624C51.1698 18.552 51.4178 17.592 51.9138 16.744C52.4258 15.896 53.1378 15.232 54.0498 14.752C54.9618 14.256 56.0098 14.008 57.1938 14.008C58.3938 14.008 59.4338 14.256 60.3138 14.752C61.1938 15.232 61.8658 15.896 62.3298 16.744C62.8098 17.592 63.0498 18.552 63.0498 19.624C63.0498 20.696 62.8098 21.664 62.3298 22.528C61.8658 23.376 61.1938 24.048 60.3138 24.544C59.4338 25.04 58.3778 25.288 57.1458 25.288C55.9938 25.288 54.9618 25.064 54.0498 24.616C53.1538 24.168 52.4498 23.52 51.9378 22.672C51.4258 21.824 51.1698 20.808 51.1698 19.624ZM54.5538 19.648C54.5538 20.192 54.6658 20.688 54.8898 21.136C55.1138 21.568 55.4178 21.912 55.8018 22.168C56.1858 22.424 56.6178 22.552 57.0978 22.552C57.8818 22.552 58.5058 22.28 58.9698 21.736C59.4338 21.176 59.6658 20.48 59.6658 19.648C59.6658 18.816 59.4338 18.128 58.9698 17.584C58.5058 17.024 57.8818 16.744 57.0978 16.744C56.6178 16.744 56.1858 16.872 55.8018 17.128C55.4178 17.384 55.1138 17.728 54.8898 18.16C54.6658 18.592 54.5538 19.088 54.5538 19.648ZM69.9688 25.288C68.9928 25.288 68.1208 25.064 67.3528 24.616C66.5848 24.152 65.9768 23.488 65.5288 22.624C65.0968 21.76 64.8808 20.736 64.8808 19.552C64.8808 18.368 65.1208 17.36 65.6008 16.528C66.0808 15.696 66.7368 15.064 67.5688 14.632C68.4008 14.2 69.3448 13.984 70.4008 13.984C71.0728 13.984 71.7128 14.088 72.3208 14.296C72.9448 14.504 73.4648 14.824 73.8808 15.256V16.312V6.064H77.2168V25H73.8568V22.96L74.1208 23.68C73.5768 24.128 72.9688 24.512 72.2968 24.832C71.6248 25.136 70.8488 25.288 69.9688 25.288ZM71.0728 22.456C71.7448 22.456 72.3048 22.328 72.7528 22.072C73.2008 21.8 73.5688 21.4 73.8568 20.872V18.304C73.6648 17.792 73.3208 17.384 72.8248 17.08C72.3288 16.776 71.7448 16.624 71.0728 16.624C70.5768 16.624 70.1128 16.752 69.6808 17.008C69.2648 17.248 68.9288 17.584 68.6728 18.016C68.4168 18.448 68.2888 18.944 68.2888 19.504C68.2888 20.064 68.4168 20.568 68.6728 21.016C68.9288 21.464 69.2648 21.816 69.6808 22.072C70.1128 22.328 70.5768 22.456 71.0728 22.456ZM89.5773 24.064C89.1133 24.432 88.5293 24.728 87.8253 24.952C87.1373 25.176 86.4573 25.288 85.7853 25.288C84.5853 25.288 83.5373 25.072 82.6413 24.64C81.7613 24.192 81.0733 23.56 80.5773 22.744C80.0973 21.912 79.8573 20.912 79.8573 19.744C79.8573 18.576 80.1213 17.584 80.6493 16.768C81.1773 15.936 81.8653 15.304 82.7133 14.872C83.5773 14.44 84.4813 14.224 85.4253 14.224C86.3693 14.224 87.1853 14.352 87.8733 14.608C88.5773 14.864 89.1773 15.2 89.6733 15.616L88.0413 17.776C87.8173 17.6 87.5053 17.424 87.1053 17.248C86.7213 17.056 86.2653 16.96 85.7373 16.96C85.2733 16.96 84.8493 17.08 84.4653 17.32C84.0813 17.56 83.7773 17.888 83.5533 18.304C83.3293 18.72 83.2173 19.2 83.2173 19.744C83.2173 20.256 83.3373 20.728 83.5773 21.16C83.8173 21.592 84.1453 21.936 84.5613 22.192C84.9933 22.432 85.4973 22.552 86.0733 22.552C86.4413 22.552 86.7773 22.504 87.0813 22.408C87.4013 22.296 87.6733 22.144 87.8973 21.952L89.5773 24.064ZM96.5737 25.288C95.5977 25.288 94.7097 25.096 93.9097 24.712C93.1257 24.312 92.5017 23.704 92.0377 22.888C91.5737 22.072 91.3417 21.032 91.3417 19.768C91.3417 18.584 91.5817 17.56 92.0617 16.696C92.5417 15.832 93.1737 15.168 93.9577 14.704C94.7417 14.224 95.5737 13.984 96.4537 13.984C97.4937 13.984 98.2777 14.16 98.8057 14.512C99.3497 14.848 99.7977 15.224 100.15 15.64L100.006 16.048L100.318 14.512H103.438V25H100.078V22.72L100.342 23.44C100.31 23.44 100.214 23.536 100.054 23.728C99.8937 23.904 99.6537 24.12 99.3337 24.376C99.0297 24.616 98.6457 24.824 98.1817 25C97.7337 25.192 97.1977 25.288 96.5737 25.288ZM97.5337 22.552C98.1417 22.552 98.6537 22.424 99.0697 22.168C99.4857 21.896 99.8217 21.496 100.078 20.968V18.4C99.8857 17.888 99.5497 17.48 99.0697 17.176C98.6057 16.872 98.0537 16.72 97.4137 16.72C96.9337 16.72 96.4857 16.848 96.0697 17.104C95.6697 17.344 95.3497 17.68 95.1097 18.112C94.8697 18.544 94.7497 19.04 94.7497 19.6C94.7497 20.16 94.8777 20.664 95.1337 21.112C95.3897 21.56 95.7257 21.912 96.1417 22.168C96.5737 22.424 97.0377 22.552 97.5337 22.552ZM110.308 25.216C109.444 25.216 108.636 25.064 107.884 24.76C107.148 24.456 106.524 24.032 106.012 23.488L107.404 21.64C107.916 22.104 108.388 22.44 108.82 22.648C109.268 22.84 109.668 22.936 110.02 22.936C110.436 22.936 110.78 22.872 111.052 22.744C111.324 22.616 111.46 22.408 111.46 22.12C111.46 21.848 111.348 21.632 111.124 21.472C110.916 21.312 110.644 21.184 110.308 21.088C109.972 20.976 109.612 20.864 109.228 20.752C108.268 20.448 107.572 20.008 107.14 19.432C106.724 18.84 106.516 18.2 106.516 17.512C106.516 16.984 106.652 16.456 106.924 15.928C107.212 15.384 107.66 14.936 108.268 14.584C108.892 14.216 109.692 14.032 110.668 14.032C111.548 14.032 112.292 14.12 112.9 14.296C113.508 14.472 114.084 14.76 114.628 15.16L113.356 17.128C113.052 16.888 112.708 16.688 112.324 16.528C111.956 16.352 111.612 16.256 111.292 16.24C110.86 16.224 110.524 16.304 110.284 16.48C110.044 16.64 109.924 16.832 109.924 17.056C109.908 17.36 110.02 17.6 110.26 17.776C110.516 17.952 110.836 18.088 111.22 18.184C111.604 18.28 111.98 18.392 112.348 18.52C113.1 18.776 113.7 19.144 114.148 19.624C114.596 20.088 114.82 20.712 114.82 21.496C114.82 22.136 114.652 22.744 114.316 23.32C113.996 23.88 113.5 24.336 112.828 24.688C112.172 25.04 111.332 25.216 110.308 25.216ZM118.618 9.904H121.978V14.464H124.522V17.08H121.978V25H118.618V17.08H116.986V14.464H118.618V9.904Z" fill="white"/>
<path d="M9.0625 7.4375C9.0625 5.99539 9.63538 4.61234 10.6551 3.59261C11.6748 2.57288 13.0579 2 14.5 2C15.9421 2 17.3252 2.57288 18.3449 3.59261C19.3646 4.61234 19.9375 5.99539 19.9375 7.4375V16.5C19.9375 17.9421 19.3646 19.3252 18.3449 20.3449C17.3252 21.3646 15.9421 21.9375 14.5 21.9375C13.0579 21.9375 11.6748 21.3646 10.6551 20.3449C9.63538 19.3252 9.0625 17.9421 9.0625 16.5V7.4375Z" fill="#00EB6C"/>
<path d="M6.34375 13.7812C6.5841 13.7812 6.81461 13.8767 6.98457 14.0467C7.15452 14.2166 7.25 14.4471 7.25 14.6875V16.5C7.25 18.4228 8.01384 20.2669 9.37348 21.6265C10.7331 22.9862 12.5772 23.75 14.5 23.75C16.4228 23.75 18.2669 22.9862 19.6265 21.6265C20.9862 20.2669 21.75 18.4228 21.75 16.5V14.6875C21.75 14.4471 21.8455 14.2166 22.0154 14.0467C22.1854 13.8767 22.4159 13.7812 22.6562 13.7812C22.8966 13.7812 23.1271 13.8767 23.2971 14.0467C23.467 14.2166 23.5625 14.4471 23.5625 14.6875V16.5C23.5625 18.7466 22.7281 20.9132 21.221 22.5794C19.7139 24.2455 17.6416 25.2925 15.4062 25.5172V29.1875H20.8438C21.0841 29.1875 21.3146 29.283 21.4846 29.4529C21.6545 29.6229 21.75 29.8534 21.75 30.0938C21.75 30.3341 21.6545 30.5646 21.4846 30.7346C21.3146 30.9045 21.0841 31 20.8438 31H8.15625C7.9159 31 7.68539 30.9045 7.51543 30.7346C7.34548 30.5646 7.25 30.3341 7.25 30.0938C7.25 29.8534 7.34548 29.6229 7.51543 29.4529C7.68539 29.283 7.9159 29.1875 8.15625 29.1875H13.5938V25.5172C11.3584 25.2925 9.28612 24.2455 7.77903 22.5794C6.27195 20.9132 5.43747 18.7466 5.4375 16.5V14.6875C5.4375 14.4471 5.53298 14.2166 5.70293 14.0467C5.87289 13.8767 6.1034 13.7812 6.34375 13.7812Z" fill="#00EB6C"/>
</svg>
