<svg width="12" height="14" viewBox="0 0 12 14" fill="none" xmlns="http://www.w3.org/2000/svg">
<path fill-rule="evenodd" clip-rule="evenodd" d="M0.00292969 2C0.00292969 0.89543 -0.101919 0 1.00265 0H3.00265C4.10722 0 4.00293 0.895431 4.00293 2V12C4.00293 13.1046 4.10722 14 3.00265 14H1.00265C-0.101919 14 0.00265019 13.1046 0.00265019 12L0.00292969 2Z" fill="#B4B4B4"/>
<path fill-rule="evenodd" clip-rule="evenodd" d="M8.00265 2.5C8.00265 1.39543 7.89808 0 9.00265 0H11.0027C12.1072 0 12.0027 0.89543 12.0027 2V12C12.0027 13.1046 12.1072 14 11.0027 14H9.00265C7.89808 14 8.00265 13.1046 8.00265 12V2.5Z" fill="#B4B4B4"/>
</svg>
