<svg width="8" height="8" viewBox="0 0 8 8" fill="none" xmlns="http://www.w3.org/2000/svg">
<path fill-rule="evenodd" clip-rule="evenodd" d="M1.33333 0.645161L1.32885 0.569922C1.29034 0.249058 1.00856 0 0.666667 0L0.58892 0.00434048C0.257361 0.0416081 0 0.314299 0 0.645161V7.35484L0.00448512 7.43008C0.0429952 7.75094 0.324776 8 0.666667 8L0.744414 7.99566C1.07597 7.95839 1.33333 7.6857 1.33333 7.35484L1.33333 0.645161ZM2.66667 3.48163C2.33673 3.7481 2.33673 4.2519 2.66667 4.51837C2.66994 4.52102 2.67325 4.52364 2.67659 4.52623L6.92404 7.82981C7.36195 8.1704 8 7.85834 8 7.30357L8 0.696426C8 0.141661 7.36195 -0.170402 6.92404 0.170191L2.67659 3.47377C2.67325 3.47636 2.66994 3.47898 2.66667 3.48163Z" fill="#191D23"/>
</svg>
