<svg width="12" height="12" viewBox="0 0 12 12" fill="none" xmlns="http://www.w3.org/2000/svg">
<path fill-rule="evenodd" clip-rule="evenodd" d="M8.1787 0.195262C8.41902 -0.0450605 8.79718 -0.0635469 9.0587 0.139803L10.9603 2.04142C11.1467 2.28116 11.1467 2.61889 10.9603 2.85862L9.0587 4.76024C8.81897 4.94665 8.40779 4.93387 8.1787 4.70478C7.94961 4.47569 7.93684 4.06451 8.12324 3.82478L8.80453 3.13494C8.00138 3.14791 7.07063 3.70929 6.01229 4.81909L5.80243 5.04798L5.52953 5.36061C5.31419 5.6114 5.31514 5.9821 5.53174 6.23179L6.00548 6.77126C7.0772 7.89413 8.02181 8.4592 8.83931 8.46647L8.12324 7.74193C7.91989 7.48041 7.93838 7.10225 8.1787 6.86193C8.41902 6.62161 8.79718 6.60312 9.0587 6.80647L10.9603 8.70809C11.1467 8.94782 11.1467 9.28556 10.9603 9.52529L9.0587 11.4269C8.81897 11.6133 8.40838 11.6011 8.1787 11.3715C7.94902 11.1418 7.93684 10.7312 8.12324 10.4914L8.808 9.79867L8.69162 9.79729C6.82957 9.74386 5.15784 8.64213 4.38535 7.04771C3.58867 8.70809 2.13282 9.80098 0.666667 9.80098C0.298477 9.80098 0 9.5025 0 9.13431C0 8.76612 0.298477 8.46765 0.666667 8.46765C1.63837 8.46765 2.27819 7.89648 3.29202 6.2816L3.4854 5.96765C3.5491 5.86423 3.55151 5.73435 3.49168 5.62864L3.29202 5.2759C2.25255 3.61476 1.60366 3.13333 0.666667 3.13333C0.298477 3.13333 0 2.83486 0 2.46667C0 2.09848 0.298477 1.8 0.666667 1.8C2.23769 1.8 3.15515 2.60649 4.38563 4.55389C5.66146 2.70475 6.82812 1.85817 8.68815 1.80379L8.84133 1.80133L8.12324 1.07527C7.91989 0.813739 7.93838 0.435585 8.1787 0.195262Z" fill="#191D23"/>
</svg>
