<svg width="14" height="11" viewBox="0 0 14 11" fill="none" xmlns="http://www.w3.org/2000/svg">
<path fill-rule="evenodd" clip-rule="evenodd" d="M11.9743 3.68979L12.0366 3.74525L13.8062 5.52861L13.8613 5.59141C14.0462 5.83115 14.0462 6.16888 13.8613 6.40861L13.8062 6.47142L13.7439 6.52688C13.506 6.71328 13.1709 6.71328 12.933 6.52688L12.8707 6.47142L12.2546 5.85001C12.1818 6.61287 11.948 7.34339 11.5707 8.00056C10.6314 9.63688 8.8978 10.6667 6.98685 10.6667C5.34007 10.6667 3.81697 9.90294 2.82026 8.62215C2.5948 8.33243 2.64508 7.91337 2.93258 7.68616C3.22008 7.45895 3.63592 7.50963 3.86138 7.79935C4.6099 8.7612 5.75089 9.33333 6.98685 9.33333C8.42067 9.33333 9.72031 8.56133 10.4255 7.33291C10.6943 6.86462 10.8657 6.3472 10.9288 5.80534L10.2669 6.47142L10.2046 6.52688C9.94508 6.73023 9.56983 6.71174 9.33135 6.47142C9.09288 6.2311 9.07453 5.85294 9.27632 5.59141L9.33135 5.52861L11.101 3.74525L11.1633 3.68979C11.4012 3.50339 11.7364 3.50339 11.9743 3.68979ZM7.04545 0C8.69223 0 10.2153 0.763732 11.212 2.04451C11.4375 2.33424 11.3872 2.75329 11.0997 2.9805C10.8122 3.20771 10.3964 3.15704 10.1709 2.86731C9.4224 1.90547 8.28141 1.33333 7.04545 1.33333C5.61163 1.33333 4.31199 2.10534 3.60682 3.33376C3.43916 3.62583 3.30938 3.93702 3.22014 4.26132L3.73308 3.74525L3.7954 3.68979C4.05492 3.48644 4.43017 3.50493 4.66865 3.74525C4.90712 3.98558 4.92547 4.36373 4.72368 4.62526L4.66865 4.68806L2.89899 6.47142L2.83667 6.52688C2.59877 6.71328 2.26364 6.71328 2.02574 6.52688L1.96342 6.47142L0.193762 4.68806L0.138729 4.62526C-0.0462431 4.38552 -0.0462431 4.04779 0.138729 3.80806L0.193762 3.74525L0.256085 3.68979C0.493977 3.50339 0.829115 3.50339 1.06701 3.68979L1.12933 3.74525L1.82587 4.44744C1.93032 3.81828 2.14562 3.21647 2.46156 2.66611C3.40088 1.02979 5.13449 0 7.04545 0Z" fill="#191D23"/>
</svg>
