<svg width="14" height="10" viewBox="0 0 14 10" fill="none" xmlns="http://www.w3.org/2000/svg">
<path d="M6.59957 10C7.05118 10 7.38237 9.6875 7.38237 9.27455V0.753348C7.38237 0.334821 7.05118 0 6.58753 0C6.28043 0 6.06366 0.122768 5.73247 0.412946L3.21548 2.59487C3.17935 2.62835 3.13118 2.64509 3.07699 2.64509H1.3729C0.48172 2.64509 0 3.10268 0 3.96763V6.04353C0 6.90848 0.48172 7.36607 1.3729 7.36607H3.07699C3.13118 7.36607 3.17333 7.38281 3.21548 7.41629L5.73247 9.61496C6.03355 9.88281 6.28645 10 6.59957 10ZM11.9527 8.9788C12.2297 9.13505 12.5669 9.07924 12.7596 8.81696C13.5424 7.79018 14 6.41183 14 4.99442C14 3.57701 13.5484 2.19308 12.7596 1.17188C12.5669 0.909598 12.2297 0.848214 11.9527 1.01004C11.6637 1.17746 11.6215 1.51228 11.8383 1.80804C12.4766 2.67857 12.8439 3.81138 12.8439 4.99442C12.8439 6.17188 12.4705 7.30469 11.8383 8.1808C11.6275 8.47656 11.6637 8.8058 11.9527 8.9788ZM9.53204 7.48326C9.79097 7.63951 10.1282 7.58371 10.3148 7.33817C10.8026 6.73549 11.0916 5.8817 11.0916 4.99442C11.0916 4.10714 10.8026 3.25893 10.3148 2.65067C10.1282 2.40513 9.79097 2.34933 9.53204 2.51116C9.23699 2.68973 9.17677 3.01897 9.41763 3.34263C9.74882 3.78348 9.93548 4.375 9.93548 4.99442C9.93548 5.61384 9.7428 6.19978 9.41763 6.64621C9.1828 6.96987 9.23699 7.29911 9.53204 7.48326Z" fill="#191D23"/>
</svg>
