<svg width="180" height="88" viewBox="0 0 180 88" fill="none" xmlns="http://www.w3.org/2000/svg">
<path d="M95.4462 61.5975C83.1572 64.6611 68.4837 65.2433 57.6837 57.506C50.7819 52.5613 47.117 42.5628 49.6963 34.4471C52.1323 26.7825 57.821 20.0482 66.3456 20.2534C70.7889 20.3604 74.62 22.4047 75.4289 27.084C76.6646 34.2329 69.533 41.6308 63.8628 44.7405C46.1671 54.4452 21.134 53.9052 4.27674 42.6407" stroke="#00EB6C" stroke-width="3" stroke-linecap="round"/>
<path d="M11.7065 55.8445C9.64458 52.9632 5.14184 46.2415 3.62657 42.4052" stroke="#00EB6C" stroke-width="3" stroke-linecap="round"/>
<path d="M3.62671 42.405C7.13935 41.9415 15.1237 40.6358 18.9601 39.1205" stroke="#00EB6C" stroke-width="3" stroke-linecap="round"/>
<path d="M112.694 60.5967C112.214 60.3447 111.71 60.1347 111.182 59.9667C110.666 59.7867 110.168 59.6967 109.688 59.6967C109.04 59.6967 108.53 59.8407 108.158 60.1287C107.786 60.4047 107.6 60.8007 107.6 61.3167C107.6 61.6647 107.726 61.9707 107.978 62.2347C108.242 62.4987 108.578 62.7327 108.986 62.9367C109.394 63.1407 109.826 63.3267 110.282 63.4947C110.81 63.6867 111.32 63.9327 111.812 64.2327C112.316 64.5207 112.724 64.9167 113.036 65.4207C113.36 65.9127 113.522 66.5727 113.522 67.4007C113.522 68.0847 113.348 68.7147 113 69.2907C112.652 69.8547 112.154 70.3047 111.506 70.6407C110.858 70.9767 110.066 71.1447 109.13 71.1447C108.326 71.1447 107.54 71.0187 106.772 70.7667C106.016 70.5027 105.338 70.1667 104.738 69.7587L105.692 68.0847C106.124 68.4087 106.64 68.6907 107.24 68.9307C107.852 69.1587 108.416 69.2727 108.932 69.2727C109.316 69.2727 109.688 69.2127 110.048 69.0927C110.408 68.9727 110.708 68.7747 110.948 68.4987C111.188 68.2227 111.308 67.8567 111.308 67.4007C111.308 67.0407 111.2 66.7287 110.984 66.4647C110.78 66.2007 110.504 65.9727 110.156 65.7807C109.82 65.5887 109.454 65.4147 109.058 65.2587C108.65 65.1027 108.23 64.9287 107.798 64.7367C107.378 64.5447 106.988 64.3107 106.628 64.0347C106.268 63.7467 105.974 63.3987 105.746 62.9907C105.518 62.5707 105.404 62.0667 105.404 61.4787C105.404 60.7467 105.572 60.1167 105.908 59.5887C106.244 59.0487 106.712 58.6287 107.312 58.3287C107.912 58.0167 108.596 57.8427 109.364 57.8067C110.3 57.8067 111.092 57.9207 111.74 58.1487C112.4 58.3767 112.982 58.6467 113.486 58.9587L112.694 60.5967ZM119.067 71.1987C118.347 71.1987 117.693 71.0487 117.105 70.7487C116.529 70.4487 116.067 70.0047 115.719 69.4167C115.383 68.8167 115.215 68.0727 115.215 67.1847C115.215 66.3327 115.395 65.5947 115.755 64.9707C116.115 64.3467 116.583 63.8667 117.159 63.5307C117.747 63.1947 118.377 63.0267 119.049 63.0267C119.793 63.0267 120.387 63.1707 120.831 63.4587C121.275 63.7467 121.629 64.0827 121.893 64.4667L121.785 64.7547L121.983 63.3687H123.873V71.0007H121.821V69.1647L122.001 69.6327C121.965 69.7047 121.875 69.8247 121.731 69.9927C121.587 70.1487 121.389 70.3227 121.137 70.5147C120.897 70.6947 120.603 70.8567 120.255 71.0007C119.907 71.1327 119.511 71.1987 119.067 71.1987ZM119.625 69.5067C120.177 69.5067 120.639 69.3687 121.011 69.0927C121.395 68.8167 121.665 68.4267 121.821 67.9227V66.2487C121.677 65.7927 121.401 65.4207 120.993 65.1327C120.585 64.8447 120.105 64.7007 119.553 64.7007C119.145 64.7007 118.767 64.8027 118.419 65.0067C118.083 65.1987 117.813 65.4747 117.609 65.8347C117.405 66.1947 117.303 66.6087 117.303 67.0767C117.303 67.5447 117.411 67.9647 117.627 68.3367C117.843 68.6967 118.125 68.9847 118.473 69.2007C118.833 69.4047 119.217 69.5067 119.625 69.5067ZM129.914 71.1987L125.522 63.3687H127.952L130.706 69.0747L129.446 69.0207L131.912 63.3687H134.198L130.004 71.1987H129.914ZM139.256 71.1987C138.356 71.1987 137.588 71.0247 136.952 70.6767C136.316 70.3287 135.824 69.8487 135.476 69.2367C135.14 68.6127 134.972 67.9047 134.972 67.1127C134.972 66.3567 135.164 65.6727 135.548 65.0607C135.944 64.4367 136.466 63.9447 137.114 63.5847C137.774 63.2127 138.5 63.0267 139.292 63.0267C140.348 63.0267 141.218 63.3327 141.902 63.9447C142.586 64.5447 143.042 65.4027 143.27 66.5187L137.132 68.5887L136.664 67.4367L141.416 65.7447L141.002 65.9787C140.87 65.6187 140.66 65.3067 140.372 65.0427C140.084 64.7787 139.676 64.6467 139.148 64.6467C138.512 64.6467 137.996 64.8687 137.6 65.3127C137.204 65.7447 137.006 66.3087 137.006 67.0047C137.006 67.7607 137.222 68.3607 137.654 68.8047C138.098 69.2367 138.644 69.4527 139.292 69.4527C139.604 69.4527 139.904 69.3987 140.192 69.2907C140.48 69.1827 140.75 69.0387 141.002 68.8587L141.938 70.3707C141.542 70.6227 141.104 70.8267 140.624 70.9827C140.156 71.1267 139.7 71.1987 139.256 71.1987ZM147.16 71.0007C147.904 70.2447 148.624 69.5127 149.32 68.8047C150.016 68.0967 150.64 67.4127 151.192 66.7527C151.744 66.0927 152.176 65.4507 152.488 64.8267C152.812 64.1907 152.974 63.5847 152.974 63.0087C152.974 62.5647 152.878 62.1987 152.686 61.9107C152.506 61.6107 152.26 61.3887 151.948 61.2447C151.636 61.1007 151.294 61.0287 150.922 61.0287C150.466 61.0287 150.094 61.1187 149.806 61.2987C149.518 61.4787 149.302 61.7007 149.158 61.9647C149.014 62.2287 148.942 62.4867 148.942 62.7387C148.942 63.1347 149.002 63.4887 149.122 63.8007C149.254 64.1007 149.428 64.3647 149.644 64.5927L148.33 65.7807C148.03 65.6127 147.766 65.3487 147.538 64.9887C147.322 64.6287 147.154 64.2507 147.034 63.8547C146.926 63.4467 146.872 63.0987 146.872 62.8107C146.872 62.1507 147.04 61.5327 147.375 60.9567C147.724 60.3687 148.222 59.8947 148.87 59.5347C149.53 59.1627 150.334 58.9767 151.282 58.9767C152.074 58.9767 152.758 59.1567 153.334 59.5167C153.91 59.8767 154.36 60.3507 154.684 60.9387C155.02 61.5147 155.188 62.1447 155.188 62.8287C155.188 63.5967 155.002 64.3407 154.63 65.0607C154.27 65.7687 153.814 66.4707 153.262 67.1667C152.71 67.8507 152.134 68.5407 151.534 69.2367L150.58 68.9487H155.476V71.0007H147.16ZM160.669 71.1447C160.009 71.1447 159.367 71.0247 158.743 70.7847C158.119 70.5327 157.627 70.2267 157.267 69.8667L158.383 68.1927C158.611 68.4567 158.923 68.6787 159.319 68.8587C159.727 69.0267 160.123 69.1107 160.507 69.1107C161.071 69.1107 161.539 68.9307 161.911 68.5707C162.283 68.2107 162.469 67.7247 162.469 67.1127C162.469 66.4647 162.283 65.9367 161.911 65.5287C161.551 65.1087 161.029 64.8987 160.345 64.8987C159.949 64.8987 159.577 64.9527 159.229 65.0607C158.881 65.1687 158.497 65.3367 158.077 65.5647H158.059V59.1207H163.855V61.1727H159.895V63.7107L159.625 63.2607C159.817 63.2127 160.015 63.1767 160.219 63.1527C160.435 63.1167 160.645 63.0987 160.849 63.0987C161.677 63.0987 162.373 63.2847 162.937 63.6567C163.501 64.0167 163.927 64.4967 164.215 65.0967C164.515 65.6847 164.665 66.3387 164.665 67.0587C164.665 67.8267 164.491 68.5227 164.143 69.1467C163.795 69.7587 163.315 70.2447 162.703 70.6047C162.103 70.9647 161.425 71.1447 160.669 71.1447ZM169.3 65.9787C168.7 65.9787 168.196 65.8407 167.788 65.5647C167.392 65.2887 167.092 64.9107 166.888 64.4307C166.684 63.9387 166.582 63.3807 166.582 62.7567C166.582 62.1327 166.684 61.5807 166.888 61.1007C167.092 60.6207 167.392 60.2427 167.788 59.9667C168.196 59.6787 168.7 59.5347 169.3 59.5347C169.9 59.5347 170.398 59.6787 170.794 59.9667C171.202 60.2427 171.508 60.6207 171.712 61.1007C171.916 61.5807 172.018 62.1327 172.018 62.7567C172.018 63.3807 171.91 63.9387 171.694 64.4307C171.49 64.9107 171.19 65.2887 170.794 65.5647C170.398 65.8407 169.9 65.9787 169.3 65.9787ZM168.382 62.7567C168.382 63.2967 168.454 63.7287 168.598 64.0527C168.742 64.3767 168.976 64.5387 169.3 64.5387C169.624 64.5387 169.852 64.3767 169.984 64.0527C170.128 63.7287 170.2 63.2967 170.2 62.7567C170.2 62.1567 170.128 61.7187 169.984 61.4427C169.852 61.1547 169.624 61.0107 169.3 61.0107C168.976 61.0107 168.742 61.1487 168.598 61.4247C168.454 61.7007 168.382 62.1447 168.382 62.7567ZM176.392 71.3787C175.804 71.3787 175.306 71.2407 174.898 70.9647C174.49 70.6887 174.184 70.3107 173.98 69.8307C173.788 69.3387 173.692 68.7807 173.692 68.1567C173.692 67.5327 173.788 66.9807 173.98 66.5007C174.184 66.0207 174.49 65.6427 174.898 65.3667C175.306 65.0787 175.804 64.9347 176.392 64.9347C176.992 64.9347 177.49 65.0787 177.886 65.3667C178.294 65.6427 178.6 66.0207 178.804 66.5007C179.008 66.9807 179.11 67.5327 179.11 68.1567C179.11 68.7807 179.002 69.3387 178.786 69.8307C178.582 70.3107 178.282 70.6887 177.886 70.9647C177.49 71.2407 176.992 71.3787 176.392 71.3787ZM175.474 68.1567C175.474 68.6967 175.546 69.1287 175.69 69.4527C175.846 69.7767 176.08 69.9387 176.392 69.9387C176.716 69.9387 176.944 69.7767 177.076 69.4527C177.22 69.1287 177.292 68.6967 177.292 68.1567C177.292 67.5687 177.22 67.1307 177.076 66.8427C176.944 66.5547 176.716 66.4107 176.392 66.4107C176.08 66.4107 175.846 66.5547 175.69 66.8427C175.546 67.1187 175.474 67.5567 175.474 68.1567ZM178.03 59.5167L169.984 71.0367L167.95 71.0007L175.978 59.5167H178.03Z" fill="#00EB6C"/>
</svg>
