<svg width="43" height="43" viewBox="0 0 43 43" fill="none" xmlns="http://www.w3.org/2000/svg">
<rect x="0.5" y="0.5" width="42" height="42" rx="21" stroke="#BBBBBB"/>
<path fill-rule="evenodd" clip-rule="evenodd" d="M14.5 16.5C14.5 15.3954 15.3954 14.5 16.5 14.5H18.5C19.6046 14.5 20.5 15.3954 20.5 16.5V26.5C20.5 27.6046 19.6046 28.5 18.5 28.5H16.5C15.3954 28.5 14.5 27.6046 14.5 26.5V16.5Z" fill="#00EB6C"/>
<path fill-rule="evenodd" clip-rule="evenodd" d="M22.5 16.5C22.5 15.3954 23.3954 14.5 24.5 14.5H26.5C27.6046 14.5 28.5 15.3954 28.5 16.5V26.5C28.5 27.6046 27.6046 28.5 26.5 28.5H24.5C23.3954 28.5 22.5 27.6046 22.5 26.5V16.5Z" fill="#00EB6C"/>
</svg>
